Coordinates
version=1
nRows=22
nColumns=24
inDegrees=yes

Units are S.I. units (second, meters, Newtons, ...)
Angles are in degrees.

endheader
time	pelvis_tilt	pelvis_list	pelvis_rotation	pelvis_tx	pelvis_ty	pelvis_tz	hip_flexion_r	hip_adduction_r	hip_rotation_r	knee_angle_r	ankle_angle_r	subtalar_angle_r	mtp_angle_r	hip_flexion_l	hip_adduction_l	hip_rotation_l	knee_angle_l	ankle_angle_l	subtalar_angle_l	mtp_angle_l	lumbar_extension	lumbar_bending	lumbar_rotation
      4.29000000	     -4.57946308	     -7.03431554	      0.57525307	     -0.05420367	     -0.01479184	     -0.15592186	      8.95034668	     15.93511595	     11.39237075	    -15.28869875	     -0.68523927	     -6.55292139	      8.08272276	     31.29335348	     -8.47088992	     -8.03666014	    -66.01477384	     -5.02302830	     -3.99876801	     -9.64593443	      5.98649510	      6.10561920	     -1.67988574
      4.29500000	     -4.56390263	     -6.81459636	      0.38345256	     -0.04831642	     -0.01432462	     -0.15554397	      8.15958960	     15.71363057	     11.73221930	    -14.80337605	     -0.51192380	     -6.55005740	      8.09248739	     31.89399771	     -8.27298790	     -8.34828722	    -65.05823635	     -4.37259713	     -4.23733923	    -10.20109652	      5.91839976	      5.88375190	     -1.39866023
      4.30000000	     -4.47765842	     -6.67587927	      0.30381965	     -0.04244072	     -0.01396596	     -0.15538047	      7.27318194	     15.54734800	     12.07731905	    -14.25274063	     -0.39468416	     -6.65091249	      8.15792073	     32.46451741	     -8.08297294	     -8.52943872	    -64.17293325	     -3.26948018	     -4.20489604	    -12.16058244	      5.78179615	      5.75131266	     -1.24190252
      4.30500000	     -4.56110156	     -6.49268180	      0.13153800	     -0.03667485	     -0.01379752	     -0.15506710	      6.65098231	     15.34896420	     12.41581596	    -13.85153929	     -0.15265170	     -6.57961823	      8.23074804	     33.14642294	     -7.90316364	     -8.78334139	    -63.07519501	     -2.73494445	     -4.36331957	    -12.21157572	      5.80418304	      5.56889499	     -1.01811332
      4.31000000	     -4.55381573	     -6.28234789	     -0.04476873	     -0.03088437	     -0.01355783	     -0.15478823	      5.92324674	     15.11533133	     12.76916083	    -13.43992646	      0.07117973	     -6.54825001	      8.29739813	     33.66984663	     -7.71102498	     -9.08892642	    -61.87553143	     -2.17524441	     -4.41951580	    -12.37338725	      5.72860251	      5.37461842	     -0.74935414
      4.31500000	     -4.38311963	     -6.10356404	     -0.14214088	     -0.02503713	     -0.01320848	     -0.15467724	      4.97059542	     14.89109859	     13.12993659	    -12.92344082	      0.11358849	     -6.69530443	      8.35707162	     34.00262340	     -7.51721392	     -9.37977350	    -60.66672574	     -1.31205376	     -4.27016146	    -13.64589786	      5.48827482	      5.21754595	     -0.56185877
      4.32000000	     -4.51335792	     -5.93062850	     -0.26807455	     -0.01932533	     -0.01329246	     -0.15452362	      4.46554281	     14.68865153	     13.37948483	    -12.61075642	      0.36819459	     -6.67645959	      8.42886784	     34.65492175	     -7.32089249	     -9.59449573	    -59.36159353	     -0.76895265	     -4.10470013	    -13.66656535	      5.56071981	      5.06553043	     -0.35663858
      4.32500000	     -4.46906862	     -5.73657760	     -0.45648888	     -0.01358519	     -0.01321603	     -0.15431467	      3.73931066	     14.46308224	     13.74614311	    -12.26118433	      0.58273316	     -6.68270821	      8.48323613	     35.03903223	     -7.18719323	     -9.98586778	    -57.97260789	     -0.14530189	     -3.79748783	    -13.86579128	      5.43107734	      4.90614424	     -0.03441108
      4.33000000	     -4.46412924	     -5.55559306	     -0.54208526	     -0.00785914	     -0.01326669	     -0.15428437	      3.08087788	     14.24031388	     14.03610947	    -11.93568128	      0.77417990	     -6.78504661	      8.49165854	     35.46148321	     -6.98179588	    -10.25287535	    -56.52416159	      0.47235131	     -3.40082947	    -14.09260866	      5.35238994	      4.75129889	      0.13345591
      4.33500000	     -4.48570523	     -5.38516089	     -0.62485518	     -0.00213493	     -0.01340049	     -0.15430314	      2.47374216	     14.02886473	     14.31268035	    -11.65031604	      0.96762734	     -6.90471128	      8.48815996	     35.87705280	     -6.77628528	    -10.50093666	    -55.01053656	      1.06765983	     -2.90462850	    -14.29666999	      5.30514811	      4.61157190	      0.29027226
      4.34000000	     -4.51833191	     -5.22731824	     -0.68573534	      0.00354926	     -0.01362471	     -0.15437858	      1.90287264	     13.82987419	     14.56293426	    -11.39977067	      1.16977454	     -7.03383517	      8.47513455	     36.28048464	     -6.57563243	    -10.75429261	    -53.44248522	      1.63924278	     -2.32895472	    -14.43719075	      5.26160303	      4.48787104	      0.42526117
      4.34500000	     -4.55318854	     -5.07563033	     -0.73933839	      0.00922431	     -0.01390816	     -0.15450162	      1.35238859	     13.63691597	     14.80175132	    -11.18073875	      1.37571633	     -7.17138254	      8.45138172	     36.64935286	     -6.37599464	    -11.01438784	    -51.81297276	      2.18307767	     -1.66326693	    -14.52594410	      5.21655222	      4.37590865	      0.55120610
      4.35000000	     -4.66408240	     -4.93431322	     -0.74698939	      0.01484212	     -0.01434426	     -0.15471190	      0.93145902	     13.45832912	     14.94010877	    -11.02655578	      1.61212618	     -7.30796087	      8.45444963	     37.08442904	     -6.13672733	    -11.20229188	    -50.12302905	      2.62120570	     -0.99565976	    -14.51776919	      5.24305163	      4.26588746	      0.58358663
      4.35500000	     -4.64049907	     -4.81330901	     -0.83127109	      0.02053387	     -0.01467056	     -0.15484259	      0.32867403	     13.29661670	     15.20575230	    -10.83719429	      1.80489461	     -7.42593759	      8.41225573	     37.30208661	     -6.00426372	    -11.54374961	    -48.39046789	      3.14801598	     -0.12222227	    -14.50273440	      5.13468882	      4.20160192	      0.77517573
      4.36000000	     -4.67929896	     -4.70033660	     -0.86531593	      0.02618605	     -0.01512539	     -0.15506359	     -0.16760830	     13.14505100	     15.38440291	    -10.70235718	      2.01469518	     -7.54950770	      8.38180604	     37.57109681	     -5.82691325	    -11.82076987	    -46.60821374	      3.58118208	      0.73905937	    -14.47181225	      5.08498061	      4.13460279	      0.86874660
      4.36500000	     -4.72011175	     -4.60666806	     -0.91055730	      0.03183027	     -0.01563912	     -0.15527497	     -0.64485094	     13.01615418	     15.52792679	    -10.59467211	      2.23820696	     -7.63926000	      8.37734097	     37.81085753	     -5.67422500	    -12.10526396	    -44.79473575	      3.98013051	      1.66314857	    -14.40428437	      5.03714095	      4.09031297	      0.96523735
      4.37000000	     -4.73835157	     -4.52794959	     -0.96541077	      0.03746479	     -0.01618050	     -0.15550014	     -1.13215057	     12.90042224	     15.65349369	    -10.51089506	      2.46794549	     -7.68732454	      8.39532921	     37.99058326	     -5.54144938	    -12.41679234	    -42.94999789	      4.37282169	      2.64556280	    -14.30273774	      4.94946135	      4.06618482	      1.08962681
      4.37500000	     -4.76372920	     -4.47237823	     -1.02209831	      0.04310627	     -0.01677175	     -0.15572563	     -1.60288450	     12.80674762	     15.73709338	    -10.43864390	      2.69883700	     -7.67659838	      8.45491534	     38.15581467	     -5.43186857	    -12.73386385	    -41.09499459	      4.72373417	      3.68160257	    -14.18013054	      4.87446727	      4.06330827	      1.19197621
      4.38000000	     -4.78251513	     -4.43822836	     -1.08419494	      0.04875970	     -0.01740008	     -0.15594070	     -2.07033290	     12.73398685	     15.78399569	    -10.38332743	      2.93420940	     -7.60712019	      8.56239527	     38.29125497	     -5.34706401	    -13.06619513	    -39.23760819	      5.05650229	      4.76893379	    -14.04164121	      4.79233382	      4.08077003	      1.28920847
      4.38500000	     -4.77405104	     -4.41985949	     -1.16459645	      0.05443027	     -0.01804061	     -0.15614835	     -2.56094738	     12.67211142	     15.79478261	    -10.33915272	      3.18347194	     -7.46645059	      8.72869332	     38.36856376	     -5.28114686	    -13.40146316	    -37.38004757	      5.39856943	      5.89406969	    -13.88368507	      4.67943606	      4.11901585	      1.42958245
      4.39000000	     -4.75994269	     -4.41648910	     -1.25129815	      0.06011804	     -0.01870913	     -0.15636551	     -3.05334546	     12.61856388	     15.76367343	    -10.29842418	      3.43906407	     -7.25608729	      8.95618040	     38.42242541	     -5.22787019	    -13.73848505	    -35.53984100	      5.73789862	      7.05727230	    -13.72308458	      4.55572647	      4.17450429	      1.56225996
      4.39500000	     -4.73384237	     -4.42866145	     -1.34226889	      0.06583796	     -0.01939116	     -0.15657435	     -3.55568670	     12.57478447	     15.69639671	    -10.26367374	      3.69583542	     -6.96693370	      9.25133161	     38.44769846	     -5.18848968	    -14.07421148	    -33.72659659	      6.07797637	      8.25273996	    -13.57380258	      4.42519648	      4.24132631	      1.69538003
